<?xml version="1.0" encoding="utf-8"?>
<!-- Generator: Adobe Illustrator 24.1.2, SVG Export Plug-In . SVG Version: 6.00 Build 0)  -->
<svg version="1.1"
	 id="svg4523" inkscape:version="0.48.5 r10040" sodipodi:docname="New document 2" xmlns:cc="http://creativecommons.org/ns#" xmlns:dc="http://purl.org/dc/elements/1.1/" xmlns:inkscape="http://www.inkscape.org/namespaces/inkscape" xmlns:rdf="http://www.w3.org/1999/02/22-rdf-syntax-ns#" xmlns:sodipodi="http://sodipodi.sourceforge.net/DTD/sodipodi-0.dtd" xmlns:svg="http://www.w3.org/2000/svg"
	 xmlns="http://www.w3.org/2000/svg" xmlns:xlink="http://www.w3.org/1999/xlink" x="0px" y="0px" viewBox="0 0 365.1 112.4"
	 style="enable-background:new 0 0 365.1 112.4;" xml:space="preserve">
<style type="text/css">
	.st0{fill:#F9D523;}
	.st1{fill:none;}
	.st2{fill:#F15A24;}
	.st3{fill:url(#path358_1_);}
	.st4{fill:url(#path367_1_);}
	.st5{fill:#39B54A;}
	.st6{enable-background:new    ;}
</style>
<sodipodi:namedview  bordercolor="#666666" borderopacity="1.0" id="base" inkscape:current-layer="layer1" inkscape:cx="375" inkscape:cy="520" inkscape:document-units="px" inkscape:pageopacity="0.0" inkscape:pageshadow="2" inkscape:window-height="435" inkscape:window-maximized="0" inkscape:window-width="501" inkscape:window-x="0" inkscape:window-y="75" inkscape:zoom="0.35" pagecolor="#ffffff" showgrid="false">
	</sodipodi:namedview>
<g id="layer1" inkscape:groupmode="layer" inkscape:label="Layer 1">
	
		<g id="g277" transform="matrix(0.52734688,0,0,0.52734688,-416.55084,132.92058)" inkscape:export-filename="/home/pockey/Documents/SFD/sfd-logo.png" inkscape:export-xdpi="100.22" inkscape:export-ydpi="100.22">
		<g id="g279" transform="translate(19.758941,-12.349338)">
			<g id="g281">
				<path id="path283" inkscape:connector-curvature="0" class="st0" d="M828.5-185.2c0,0,7.5,9.4,5.7-0.2
					c-1.8-9.7-16.1-28.6-23.3-24c-7.2,4.6-3.6,8.3,1,10.8C816.4-196.3,825.3-190.1,828.5-185.2L828.5-185.2z"/>
				<path id="path285" inkscape:connector-curvature="0" class="st0" d="M866.6-199.9c0,0-1.5,12.8,4.5,4.1c6-8.6,9.4-33.7,0.5-35.7
					s-9,3.6-7.4,8.8C865.8-217.4,867.9-206,866.6-199.9z"/>
				<path id="path287" inkscape:connector-curvature="0" class="st0" d="M908.7-195.5c0,0-9.5,11.7,1.8,6.9
					c11.3-4.8,30.6-27.4,23.1-35s-11.2-2.1-12.9,4.1C919-213.3,913.8-200.7,908.7-195.5z"/>
				<path id="path289" inkscape:connector-curvature="0" class="st0" d="M939.2-165.1c0,0-14.9,4.1-2.6,6.9
					c12.3,2.7,41.8-4.8,40-15.6s-8.1-8.4-13.2-4.2C958.3-174,946.6-166.5,939.2-165.1L939.2-165.1z"/>
				<path id="path291" inkscape:connector-curvature="0" class="st0" d="M804.5-156.5c0,0,9.9,3.3,4-2.9s-25.3-13.1-28.3-6.3
					c-3.1,6.7,1.4,7.7,5.8,7.3C790.5-158.7,799.9-158.5,804.5-156.5L804.5-156.5z"/>
				<path id="path293" inkscape:connector-curvature="0" class="st0" d="M797.5-124.6c0,0,8.4-0.4,2.2-3.3c-6.2-2.9-22.7-2.5-23,3.4
					c-0.4,5.9,3.3,5.4,6.5,3.8C786.3-122.3,793.4-124.8,797.5-124.6L797.5-124.6z"/>
				<path id="path295" inkscape:connector-curvature="0" class="st0" d="M804.8-96.6c0,0,5-4.3-0.3-3.1c-5.2,1.2-15.2,9.4-12.5,13.2
					c2.6,3.8,4.6,1.8,5.8-0.8C799.1-89.7,802.2-94.7,804.8-96.6z"/>
			</g>
		</g>
		<path id="path297" inkscape:connector-curvature="0" class="st1" d="M861.4-149.8c7.6-18.1,28.5-26.5,46.8-18.9
			c4.3,1.8,8,4.3,11.1,7.3c-3.7-4.1-8.4-7.5-13.8-9.8c-19.5-8.2-41.9,0.8-50,20.2c-5.7,13.7-2.7,29,6.5,39.5
			c0.9-1.6,1.9-3.2,2.8-4.8C858.3-125.8,856.6-138.3,861.4-149.8L861.4-149.8z"/>
		<path id="path299" inkscape:connector-curvature="0" class="st0" d="M1024-164.4c1.2,0,2.3-0.1,3.5-0.3s2.2-0.5,3.1-1
			s1.7-1.2,2.2-2.1c0.6-0.9,0.9-2.1,0.9-3.5c0-1.1-0.3-2-0.8-2.8c-0.6-0.8-1.3-1.5-2.1-2.2c-0.9-0.7-1.8-1.3-2.9-1.8
			s-2.1-1.2-3.2-1.8c-1.4-0.9-2.6-1.8-3.9-2.8c-1.2-1-2.2-2.1-3.1-3.3s-1.5-2.6-2-4.1s-0.8-3.2-0.8-5.2c0-2.5,0.4-4.9,1.3-7
			c0.9-2.2,2.2-4,3.9-5.6c1.7-1.6,3.9-2.8,6.5-3.7c2.6-0.9,5.7-1.4,9.2-1.4c1.6,0,3.2,0.2,4.7,0.5s2.9,0.7,4.2,1.1
			c1.3,0.4,2.5,0.9,3.6,1.5s2,1.1,2.8,1.7l-4.9,9.5c-1.3-1-2.8-1.9-4.6-2.6c-1.8-0.7-3.8-1.1-5.9-1.1c-1.2,0-2.3,0.1-3.3,0.3
			c-1.1,0.2-2,0.6-2.8,1.1s-1.4,1.2-1.9,2s-0.7,1.8-0.7,3c0,1.1,0.2,2,0.6,2.8c0.4,0.7,0.9,1.4,1.5,1.9s1.3,1,2.1,1.5
			s1.7,0.9,2.6,1.4c1.6,0.9,3.1,1.8,4.5,2.8c1.5,1,2.7,2.1,3.9,3.4c1.1,1.3,2,2.8,2.6,4.4c0.7,1.6,1,3.6,1,5.8
			c0,3.1-0.5,5.8-1.6,8.1s-2.5,4.2-4.5,5.8c-1.9,1.5-4.2,2.7-6.8,3.4c-2.6,0.7-5.6,1.1-8.8,1.1c-2.1,0-4.1-0.2-5.9-0.6
			c-1.8-0.4-3.5-0.8-5-1.4c-1.5-0.5-2.8-1.1-3.9-1.7c-1.1-0.6-2-1.2-2.6-1.6l5-9.8c0.6,0.4,1.3,0.9,2.2,1.4c0.9,0.5,1.8,1,2.9,1.4
			s2.2,0.8,3.4,1.1C1021.4-164.6,1022.6-164.4,1024-164.4L1024-164.4z"/>
		<path id="path301" inkscape:connector-curvature="0" class="st0" d="M1065.1-153.8c-2.7,0-5-0.4-7-1.3c-2-0.9-3.6-2.1-4.9-3.7
			c-1.3-1.6-2.3-3.5-2.9-5.6c-0.7-2.2-1-4.6-1-7.2c0-3.3,0.5-6.6,1.5-9.9c1-3.3,2.4-6.2,4.3-8.9c1.9-2.6,4.3-4.8,7-6.5
			c2.8-1.7,6-2.5,9.5-2.5c2.6,0,4.9,0.4,6.9,1.3c2,0.9,3.6,2.1,4.9,3.7c1.3,1.6,2.3,3.5,2.9,5.6c0.7,2.2,1,4.6,1,7.2
			c0,3.3-0.5,6.6-1.4,9.9c-1,3.3-2.4,6.2-4.2,8.9c-1.9,2.6-4.2,4.8-7,6.5S1068.8-153.8,1065.1-153.8L1065.1-153.8z M1070.7-188.9
			c-1.7,0-3.1,0.5-4.4,1.6c-1.3,1-2.3,2.4-3.2,3.9c-0.9,1.6-1.5,3.3-1.9,5.2s-0.6,3.7-0.6,5.4c0,2.8,0.4,4.9,1.2,6.5
			c0.8,1.5,2.3,2.3,4.4,2.3c1.7,0,3.1-0.5,4.4-1.6c1.3-1,2.3-2.4,3.2-3.9c0.9-1.6,1.5-3.3,1.9-5.2s0.6-3.7,0.6-5.4
			c0-2.8-0.4-4.9-1.2-6.5C1074.2-188.2,1072.8-188.9,1070.7-188.9L1070.7-188.9z"/>
		<path id="path303" inkscape:connector-curvature="0" class="st0" d="M1127.2-208.9l11.7-2l-2.9,12.7h14.2l-2.3,10h-14.1l-3.3,15.1
			c-0.3,1.3-0.5,2.4-0.6,3.5s0,2,0.4,2.8c0.3,0.8,0.9,1.4,1.7,1.8c0.8,0.4,1.9,0.7,3.3,0.7c1.2,0,2.4-0.1,3.5-0.4
			c1.1-0.2,2.3-0.6,3.4-1l0.8,9.4c-1.5,0.6-3.2,1.1-4.9,1.6c-1.8,0.4-3.9,0.7-6.3,0.7c-3.5,0-6.2-0.6-8.1-1.7
			c-1.9-1.1-3.3-2.7-4.1-4.6c-0.8-1.9-1.2-4.2-1.1-6.7s0.5-5.2,1.1-8L1127.2-208.9L1127.2-208.9z"/>
		<path id="path305" inkscape:connector-curvature="0" class="st0" d="M1173.3-180.2c-1,2.2-2,4.5-3.2,6.9c-1.2,2.3-2.4,4.6-3.6,6.8
			s-2.4,4.3-3.6,6.3s-2.2,3.8-3.1,5.3h-8.8c-0.4-2.3-0.8-5-1.2-8.2c-0.4-3.2-0.8-6.6-1.3-10.4c-0.4-3.8-0.8-7.7-1.1-11.9
			c-0.3-4.2-0.6-8.4-0.7-12.7h11c0,2,0,4.1,0,6.4c0,2.3,0.1,4.7,0.2,7.2s0.2,5,0.3,7.6c0.2,2.6,0.4,5.1,0.6,7.6
			c1.3-2.3,2.5-4.7,3.7-7.2s2.4-5,3.6-7.5c1.1-2.5,2.2-4.9,3.2-7.4c1-2.4,1.9-4.7,2.6-6.7h9.4c0,3.9,0.1,8.4,0.2,13.2
			c0.1,4.9,0.4,10.1,0.9,15.5c1.4-2.5,2.6-5,3.8-7.6c1.2-2.6,2.2-5.2,3.2-7.7s1.9-4.9,2.6-7.2c0.8-2.3,1.5-4.4,2.1-6.2h12
			c-1,2.7-2.2,5.8-3.6,9.2s-3,7-4.8,10.8s-3.9,7.6-6.1,11.6c-2.3,3.9-4.8,7.8-7.6,11.6h-8.8c-0.6-4.5-1.1-8.8-1.4-12.9
			C1173.6-171.9,1173.4-176.1,1173.3-180.2L1173.3-180.2z"/>
		<path id="path307" inkscape:connector-curvature="0" class="st0" d="M1236.6-173.6c-0.7,3.1-0.9,6.3-0.6,9.4
			c0.3,3.2,0.9,6,1.7,8.4l-10.1,1.6c-0.3-0.7-0.6-1.3-0.8-1.9c-0.3-0.6-0.5-1.3-0.8-2.1c-1.4,1.3-3,2.3-4.7,3.1s-3.6,1.2-5.8,1.2
			c-2.5,0-4.7-0.5-6.5-1.4c-1.8-1-3.3-2.2-4.4-3.9c-1.1-1.6-2-3.5-2.5-5.7s-0.8-4.5-0.8-6.9c0-3.8,0.6-7.3,1.9-10.7
			c1.2-3.3,3-6.3,5.1-8.8c2.2-2.5,4.8-4.5,7.8-5.9s6.2-2.1,9.7-2.1c0.5,0,1.3,0,2.4,0.1s2.4,0.2,3.9,0.4s3,0.5,4.6,0.9
			s3.2,1,4.6,1.8L1236.6-173.6L1236.6-173.6z M1228.8-188.7c-0.7-0.1-1.3-0.2-1.8-0.2c-0.5-0.1-1.2-0.1-1.9-0.1
			c-1.7,0-3.3,0.5-4.8,1.4s-2.8,2.2-3.9,3.7s-2,3.2-2.6,5.2s-0.9,4-0.9,6.2c0,2.6,0.4,4.7,1.2,6.2c0.8,1.5,2.3,2.3,4.5,2.3
			c1.2,0,2.2-0.2,3.1-0.7s1.9-1.3,3-2.5c0.1-1.4,0.3-2.8,0.5-4.3s0.5-2.9,0.7-4.2L1228.8-188.7z"/>
		<path id="path309" inkscape:connector-curvature="0" class="st0" d="M1270.8-187.6c-1-0.3-2-0.5-3-0.8c-1-0.2-2.4-0.4-4.4-0.4
			c-0.7,0-1.5,0.1-2.3,0.2c-0.9,0.1-1.6,0.3-2.1,0.5l-7.3,33.2h-11.3l9.1-40.9c2.2-0.8,4.6-1.5,7.3-2.2c2.7-0.7,5.7-1,9.1-1
			c1.3,0,2.7,0.1,4.2,0.4c1.5,0.2,2.9,0.6,4,1.2L1270.8-187.6L1270.8-187.6z"/>
		<path id="path311" inkscape:connector-curvature="0" class="st0" d="M1270.2-171.8c0-3.5,0.6-6.9,1.7-10.2s2.7-6.2,4.8-8.8
			s4.6-4.6,7.5-6.2c3-1.6,6.2-2.3,9.8-2.3c1.8,0,3.4,0.3,4.9,0.8s2.8,1.3,4,2.4c1.1,1,2,2.3,2.6,3.8s0.9,3.2,0.9,5.1
			c0,3.1-0.6,5.7-1.9,7.8s-3,3.9-5.3,5.2c-2.2,1.3-4.9,2.3-8,2.9c-3.1,0.6-6.4,0.9-10.1,0.9c0.4,2.3,1.1,3.9,2.3,4.9
			c1.2,1,3.1,1.4,5.6,1.4c1.6,0,3.3-0.2,4.9-0.5c1.7-0.3,3.2-0.8,4.7-1.4l0.8,9.6c-1.4,0.6-3.2,1.2-5.4,1.6
			c-2.2,0.5-4.6,0.7-7.1,0.7c-3.1,0-5.8-0.5-7.9-1.4c-2.1-1-3.9-2.3-5.2-3.9c-1.3-1.6-2.3-3.6-2.9-5.8S1270.2-169.4,1270.2-171.8
			L1270.2-171.8z M1292.3-189.6c-2.6,0-4.8,1-6.8,3c-1.9,2-3.2,4.6-3.8,7.9c3.1-0.1,5.6-0.4,7.6-0.9c1.9-0.5,3.4-1,4.5-1.7
			s1.8-1.4,2.1-2.1c0.4-0.8,0.5-1.5,0.5-2.3C1296.3-188.3,1295-189.6,1292.3-189.6L1292.3-189.6z"/>
		<g id="g313" transform="translate(19.758941,-12.349338)">
			<polygon id="polygon315" class="st0" points="1086.1,-175.8 1086.1,-175.8 1085.9,-175 			"/>
			<polygon id="polygon317" class="st2" points="1091.7,-185.8 1089.5,-175.8 1099.3,-175.8 1101.6,-185.8 			"/>
			<path id="path319" inkscape:connector-curvature="0" class="st0" d="M1104.1-205.5c-1.7-0.5-3.7-0.8-5.9-0.8
				c-6,0-10.6,1.6-13.8,4.8c-3.3,3.2-5.5,7.7-6.8,13.5l-7.9,35.8c-0.4,1.9-0.9,4-1.6,6.2c-0.4,1.6-1,3.1-1.6,4.6h11.3
				c1.3-3.7,2.5-8.1,3.7-13.4l4.4-19.9l0.1-0.2l0.2-0.8l0,0l2.2-10l0,0l0.5-2.1c0.5-2.3,1.4-4.2,2.8-5.8c1.3-1.5,3.4-2.3,6.2-2.3
				c1,0,2.1,0.1,3.3,0.4c1.2,0.2,2.2,0.6,3.1,1.1l3.8-9.6C1107-204.5,1105.7-205,1104.1-205.5L1104.1-205.5z"/>
		</g>
		<g id="g321" transform="translate(19.758941,-12.349338)">
			<path id="path323" inkscape:connector-curvature="0" class="st0" d="M1028-72.1l12.6-56.9h34l-2.4,10.6H1050l-2.6,12.2h19.6
				l-2.3,10.6h-19.6l-5.2,23.6L1028-72.1L1028-72.1z"/>
			<path id="path325" inkscape:connector-curvature="0" class="st0" d="M1096.7-104.8c-1-0.3-2-0.5-3-0.8c-1-0.2-2.4-0.4-4.3-0.4
				c-0.7,0-1.5,0.1-2.3,0.2c-0.9,0.1-1.6,0.3-2.1,0.5l-7.3,33.2h-11.3l9.1-40.9c2.2-0.8,4.6-1.5,7.3-2.2c2.7-0.7,5.7-1,9.1-1
				c1.3,0,2.7,0.1,4.2,0.4c1.5,0.2,2.9,0.6,4,1.2L1096.7-104.8L1096.7-104.8z"/>
			<path id="path327" inkscape:connector-curvature="0" class="st0" d="M1096.2-89c0-3.5,0.6-6.9,1.7-10.2s2.7-6.2,4.8-8.8
				c2.1-2.5,4.6-4.6,7.5-6.2c3-1.6,6.2-2.3,9.8-2.3c1.8,0,3.4,0.3,4.9,0.8s2.8,1.3,4,2.4c1.1,1,2,2.3,2.6,3.8s0.9,3.2,0.9,5.1
				c0,3.1-0.6,5.7-1.9,7.8s-3,3.9-5.3,5.2s-4.9,2.3-8,2.9c-3.1,0.6-6.4,0.9-10.1,0.9c0.4,2.3,1.1,3.9,2.3,4.9c1.2,1,3.1,1.4,5.6,1.4
				c1.6,0,3.3-0.2,4.9-0.5c1.7-0.3,3.2-0.8,4.7-1.4l0.8,9.6c-1.4,0.6-3.2,1.2-5.4,1.6c-2.2,0.5-4.6,0.7-7.1,0.7
				c-3.1,0-5.8-0.5-7.9-1.4s-3.9-2.3-5.2-3.9c-1.3-1.6-2.3-3.6-2.9-5.8C1096.5-84.2,1096.2-86.5,1096.2-89L1096.2-89z M1118.2-106.8
				c-2.6,0-4.8,1-6.8,3c-1.9,2-3.2,4.6-3.8,7.9c3.1-0.1,5.6-0.4,7.6-0.9c1.9-0.5,3.4-1,4.5-1.7s1.8-1.4,2.1-2.1
				c0.4-0.8,0.5-1.5,0.5-2.3C1122.2-105.4,1120.9-106.8,1118.2-106.8L1118.2-106.8z"/>
			<path id="path329" inkscape:connector-curvature="0" class="st0" d="M1132.6-89c0-3.5,0.6-6.9,1.7-10.2s2.7-6.2,4.8-8.8
				c2.1-2.5,4.6-4.6,7.5-6.2c3-1.6,6.2-2.3,9.8-2.3c1.8,0,3.4,0.3,4.9,0.8s2.8,1.3,4,2.4c1.1,1,2,2.3,2.6,3.8s0.9,3.2,0.9,5.1
				c0,3.1-0.6,5.7-1.9,7.8c-1.3,2.1-3,3.9-5.3,5.2s-4.9,2.3-8,2.9c-3.1,0.6-6.4,0.9-10.1,0.9c0.4,2.3,1.1,3.9,2.3,4.9
				c1.2,1,3.1,1.4,5.6,1.4c1.6,0,3.3-0.2,4.9-0.5c1.7-0.3,3.2-0.8,4.7-1.4l0.8,9.6c-1.4,0.6-3.2,1.2-5.4,1.6
				c-2.2,0.5-4.6,0.7-7.1,0.7c-3.1,0-5.8-0.5-7.9-1.4c-2.1-1-3.9-2.3-5.2-3.9c-1.3-1.6-2.3-3.6-2.9-5.8
				C1132.9-84.2,1132.6-86.5,1132.6-89L1132.6-89z M1154.6-106.8c-2.6,0-4.8,1-6.8,3c-1.9,2-3.2,4.6-3.8,7.9
				c3.1-0.1,5.6-0.4,7.6-0.9c1.9-0.5,3.4-1,4.5-1.7s1.8-1.4,2.1-2.1c0.4-0.8,0.5-1.5,0.5-2.3
				C1158.7-105.4,1157.3-106.8,1154.6-106.8L1154.6-106.8z"/>
			<path id="path331" inkscape:connector-curvature="0" class="st0" d="M1225.7-70.9c-2.7,0-5-0.4-7-1.3c-2-0.9-3.6-2.1-4.9-3.7
				c-1.3-1.6-2.3-3.5-2.9-5.6c-0.7-2.2-1-4.6-1-7.2c0-3.3,0.5-6.6,1.5-9.9c1-3.3,2.4-6.2,4.4-8.9c1.9-2.6,4.3-4.8,7-6.5
				c2.8-1.7,5.9-2.5,9.5-2.5c2.6,0,4.9,0.4,6.9,1.3c2,0.9,3.6,2.1,4.9,3.7c1.3,1.6,2.3,3.5,2.9,5.6c0.7,2.2,1,4.6,1,7.2
				c0,3.3-0.5,6.6-1.4,9.9c-1,3.3-2.4,6.2-4.2,8.9c-1.9,2.6-4.2,4.8-7,6.5C1232.6-71.8,1229.4-70.9,1225.7-70.9z M1231.3-106.1
				c-1.7,0-3.1,0.5-4.4,1.6c-1.3,1-2.3,2.4-3.2,3.9c-0.9,1.6-1.5,3.3-1.9,5.2s-0.6,3.7-0.6,5.4c0,2.8,0.4,4.9,1.2,6.5
				c0.8,1.5,2.3,2.3,4.4,2.3c1.7,0,3.1-0.5,4.4-1.6c1.3-1,2.3-2.4,3.2-3.9c0.9-1.6,1.5-3.3,1.9-5.2s0.6-3.7,0.6-5.4
				c0-2.8-0.4-4.9-1.2-6.5C1234.9-105.4,1233.4-106.1,1231.3-106.1z"/>
			<path id="path333" inkscape:connector-curvature="0" class="st0" d="M1256.7-113.3c0.9-0.3,1.8-0.6,2.8-0.9c1-0.4,2.1-0.7,3.3-1
				c1.2-0.3,2.6-0.5,4.2-0.7c1.5-0.2,3.3-0.3,5.3-0.3c2.4,0,4.4,0.3,6,1s3,1.6,4.3,3c1.9-1.2,3.7-2.1,5.6-2.8c1.8-0.7,4-1.1,6.5-1.1
				c2.4,0,4.4,0.3,6.1,1s3.1,1.7,4.2,3s1.9,2.8,2.4,4.6s0.8,3.7,0.8,5.9c0,1-0.1,2-0.2,3.1s-0.3,2.2-0.6,3.3l-5.1,23.3H1291l5-22.8
				c0.2-0.8,0.3-1.6,0.5-2.6s0.3-1.9,0.3-2.8c0-1.5-0.3-2.9-1-4s-1.9-1.7-3.9-1.7c-1.1,0-2.1,0.2-3,0.6c-1,0.4-1.8,0.8-2.6,1.3
				c0.1,0.4,0.2,0.8,0.2,1.2s0,0.7,0,1.1c0,1-0.1,2-0.2,3.1s-0.3,2.2-0.6,3.3l-5.1,23.3h-11.3l5-22.8c0.2-0.8,0.3-1.6,0.5-2.6
				s0.3-1.9,0.3-2.8c0-1.5-0.3-2.9-1-4s-1.9-1.7-3.9-1.7c-0.8,0-1.5,0-2,0.1c-0.6,0.1-1.2,0.2-2,0.4l-7.3,33.4h-11.3L1256.7-113.3
				L1256.7-113.3z"/>
			<path id="path335" inkscape:connector-curvature="0" class="st0" d="M1376.1-106.8c0,5.5-0.8,10.5-2.5,14.9s-4,8.1-7.1,11.1
				c-3.1,3-6.9,5.4-11.3,7s-9.5,2.5-15.1,2.5c-2.1,0-4.6-0.1-7.3-0.4c-2.8-0.3-5.4-0.7-8-1.3l12.2-55c2.9-0.6,5.6-1,8.3-1.3
				c2.6-0.2,5-0.4,7.2-0.4c3.7,0,7.1,0.5,10,1.6c3,1.1,5.4,2.7,7.5,4.7c2,2,3.6,4.4,4.7,7.2C1375.6-113.3,1376.1-110.2,1376.1-106.8
				L1376.1-106.8z M1338.6-82.4c0.6,0.1,1.1,0.1,1.7,0.1s1.4,0,2.4,0c3.3,0,6.2-0.5,8.9-1.6c2.7-1.1,4.9-2.7,6.7-4.7
				c1.8-2.1,3.3-4.6,4.3-7.6s1.5-6.3,1.5-10.1c0-1.9-0.2-3.7-0.7-5.2s-1.2-2.9-2.2-4s-2.4-2-4-2.6s-3.6-0.9-5.9-0.9
				c-1.5,0-3.1,0.1-4.6,0.2L1338.6-82.4L1338.6-82.4z"/>
			<path id="path337" inkscape:connector-curvature="0" class="st0" d="M1412.6-90.7c-0.7,3.1-0.9,6.3-0.6,9.4
				c0.3,3.2,0.9,6,1.7,8.4l-10.1,1.6c-0.3-0.7-0.6-1.3-0.8-1.9c-0.3-0.6-0.5-1.3-0.8-2.1c-1.4,1.3-3,2.3-4.7,3.1s-3.6,1.2-5.8,1.2
				c-2.5,0-4.7-0.5-6.5-1.4s-3.3-2.2-4.4-3.9c-1.1-1.6-2-3.5-2.5-5.7c-0.5-2.2-0.8-4.5-0.8-6.9c0-3.8,0.6-7.3,1.9-10.7
				c1.2-3.3,3-6.3,5.1-8.8c2.2-2.5,4.8-4.4,7.8-5.9c3-1.4,6.2-2.1,9.7-2.1c0.5,0,1.2,0,2.4,0.1c1.1,0.1,2.4,0.2,3.9,0.4
				s3,0.5,4.6,0.9s3.2,1,4.6,1.8L1412.6-90.7L1412.6-90.7z M1404.8-105.9c-0.7-0.1-1.2-0.2-1.8-0.2c-0.5-0.1-1.2-0.1-1.9-0.1
				c-1.7,0-3.3,0.5-4.8,1.4s-2.8,2.2-3.9,3.7s-2,3.2-2.6,5.2s-0.9,4-0.9,6.2c0,2.6,0.4,4.7,1.2,6.2c0.8,1.5,2.3,2.3,4.5,2.3
				c1.2,0,2.2-0.2,3.1-0.7c0.9-0.5,1.9-1.3,3-2.5c0.1-1.4,0.3-2.8,0.5-4.3s0.5-2.9,0.7-4.2L1404.8-105.9L1404.8-105.9z"/>
			<path id="path339" inkscape:connector-curvature="0" class="st0" d="M1446.7-115.3L1446.7-115.3h-0.9c-1.6,5.8-3.3,11.1-5.2,15.9
				c-1.8,4.8-4,9.2-6.4,13.1c-0.3-2-0.6-4.2-0.8-6.7c-0.3-2.5-0.5-5-0.7-7.6c-0.1-0.8-0.1-1.5-0.2-2.2c-0.1-1.8-0.3-3.7-0.4-5.5
				c-0.2-2.6-0.3-4.9-0.3-7.1h-11.6c0.4,8.5,1.1,16.2,2.2,23c1.1,6.6,2.2,12.6,3.5,17.9c-0.2,0.5-0.3,1-0.5,1.5
				c-0.4,1.3-6.7,13.5-8,14.8l3.6,0.6l6.4,1c2.4-2,14.9-24.5,16.6-27.4c1.7-3,3.3-6.1,4.8-9.3c1.6-3.3,3.1-6.7,4.5-10.3
				s2.9-7.5,4.3-11.7H1446.7L1446.7-115.3z"/>
		</g>
		<g id="g341" transform="translate(19.758941,-12.349338)">
			<path id="path343" inkscape:connector-curvature="0" class="st0" d="M1213.3-132.1H1202l-3.7,16.8c-0.8-0.2-1.6-0.4-2.4-0.5
				s-1.6-0.2-2.5-0.2c-3.5,0-6.8,0.7-9.8,2.1c-3,1.4-5.5,3.4-7.7,5.8c-2.2,2.5-3.9,5.4-5.1,8.7s-1.9,6.8-1.9,10.6
				c0,2.5,0.3,4.8,0.8,6.9c0.5,2.2,1.4,4.1,2.5,5.7s2.6,2.9,4.4,3.8c1.8,0.9,3.9,1.4,6.5,1.4c2.1,0,4-0.4,5.8-1.2
				c1.7-0.8,3.3-1.9,4.7-3.1c0.3,0.8,0.5,1.5,0.8,2.1s0.5,1.2,0.8,1.9l10.1-1.6c-0.9-2.5-1.4-5.3-1.7-8.4c-0.3-3.2-0.1-6.3,0.6-9.4
				L1213.3-132.1L1213.3-132.1z M1193.4-92.9c-0.3,1.3-0.5,2.6-0.7,4.2c-0.2,1.5-0.4,2.9-0.5,4.3c-1.1,1.2-2.1,2-3,2.5
				c-1,0.5-2,0.7-3.2,0.7c-2.2,0-3.7-0.8-4.5-2.3c-0.8-1.5-1.3-3.6-1.3-6.2c0-2,0.3-4,0.9-6c0.6-1.9,1.4-3.7,2.5-5.2
				s2.4-2.8,3.9-3.7s3.2-1.4,4.9-1.4c0.6,0,1,0,1.4,0s0.6,0,0.9,0c0.2,0,0.5,0.1,0.7,0.1c0.2,0.1,0.5,0.1,0.8,0.2L1193.4-92.9
				L1193.4-92.9z"/>
		</g>
		<g id="g345" transform="translate(19.758941,-12.349338)">
			<path id="path347" inkscape:connector-curvature="0" class="st1" d="M841.6-137.4c7.6-18.1,28.5-26.5,46.8-18.9
				c4.3,1.8,8,4.3,11.1,7.3c-3.7-4.1-8.4-7.5-13.8-9.8c-19.5-8.2-41.9,0.8-50,20.2c-4.3,10.3-4.6,23.1-0.5,33.4
				c2.1-1.6,4.3-3.1,6.5-4.7C838.2-118.4,837.8-128.3,841.6-137.4z"/>
			<path id="path349" inkscape:connector-curvature="0" class="st1" d="M874.9-151.9c-16.4,0-29.8,13.4-29.8,29.8
				c0,3.1,0.5,6.1,1.4,9c15.1-9.9,33.3-19,54-24.3l0,0C895.3-146,885.8-151.9,874.9-151.9L874.9-151.9z"/>
			<path id="path351" inkscape:connector-curvature="0" class="st1" d="M934.1-132.3c0.4,2.3,0.7,4.6,0.8,7
				c-6.4,0.5-9.9-0.6-9.9-0.6c-2.8-3.2-6-5.5-9.3-7.2c-2.1,0.2-4.3,0.6-6.5,1c-28.6,5.7-52.7,19.6-70.7,33.2c0.7,1,1.4,1.9,2.1,2.8
				c-3.6,6.4-5.2,10.3-7.9,16.9c-2.8-2.7-5.2-5.7-7.4-8.9c-7.5,6.6-13.2,12.6-16.9,16.7h183C985.8-86.9,968.7-125,934.1-132.3
				L934.1-132.3z"/>
			
				<linearGradient id="path358_1_" gradientUnits="userSpaceOnUse" x1="6895.0259" y1="9634.0371" x2="7015.0571" y2="9634.0371" gradientTransform="matrix(0.1467 0 0 -0.1467 -196.3553 1323.745)">
				<stop  offset="0" style="stop-color:#F7EC30"/>
				<stop  offset="1" style="stop-color:#FAAE40"/>
			</linearGradient>
			<path id="path358" inkscape:connector-curvature="0" class="st3" d="M840.7-96.2c-0.8-0.9-1.5-1.8-2.1-2.8
				c-4.9,3.7-9.3,7.3-13.2,10.8c2.2,3.2,4.7,6.2,7.4,8.9C835.5-85.9,837.1-89.7,840.7-96.2L840.7-96.2z"/>
			<path id="path360" inkscape:connector-curvature="0" class="st0" d="M835.8-138.6c8.1-19.3,30.5-28.3,50-20.2
				c5.5,2.3,10.1,5.7,13.8,9.8c-3.1-3-6.9-5.5-11.1-7.3c-18.3-7.7-39.2,0.8-46.8,18.9c-3.8,9.1-3.5,19,0.2,27.5
				c1.5-1.1,3.1-2.1,4.7-3.2c-0.9-2.8-1.4-5.8-1.4-9c0-16.4,13.4-29.8,29.8-29.8c10.8,0,20.3,5.8,25.6,14.5l0,0
				c2.4-0.6,4.9-1.2,7.4-1.7c4.9-1,9.8-1.5,14.5-1.5c3.5,0,6.8,0.3,10,0.8c-7.5-24.5-30.4-42.4-57.4-42.4
				c-33.2,0-60.1,26.9-60.1,60.1c0,10.1,2.5,19.5,6.8,27.8c4.1-3.5,8.6-7.3,13.6-11C831.2-115.5,831.4-128.3,835.8-138.6
				L835.8-138.6z"/>
			
				<linearGradient id="path367_1_" gradientUnits="userSpaceOnUse" x1="6895.0259" y1="9908.7285" x2="7015.0571" y2="9908.7285" gradientTransform="matrix(0.1467 0 0 -0.1467 -196.3553 1323.745)">
				<stop  offset="0" style="stop-color:#F7EC30"/>
				<stop  offset="1" style="stop-color:#FAAE40"/>
			</linearGradient>
			<path id="path367" inkscape:connector-curvature="0" class="st4" d="M925-126c0,0,3.5,1.1,9.9,0.6c-0.1-2.4-0.4-4.7-0.8-7
				c-3.7-0.8-7.6-1.2-11.8-1.2c-2.2,0-4.4,0.1-6.6,0.4C919-131.5,922.2-129.2,925-126z"/>
			<g id="g369">
				<path id="path371" inkscape:connector-curvature="0" class="st5" d="M934.1-132.3c-3.7-0.8-7.6-1.2-11.8-1.2
					c-2.2,0-4.4,0.1-6.6,0.4c-2.1,0.2-4.3,0.6-6.5,1c-28.6,5.7-52.7,19.6-70.7,33.2c-4.9,3.7-9.3,7.3-13.2,10.8
					c-7.5,6.6-13.2,12.6-16.9,16.7h183C985.8-86.9,968.7-125,934.1-132.3L934.1-132.3z"/>
			</g>
		</g>
	</g>
</g>
<g class="st6">
	<path class="st0" d="M197.7,94c0.8,0,1.5,0.1,2.1,0.3s1.1,0.5,1.5,0.8s0.7,0.8,0.8,1.2s0.3,1,0.3,1.5c0,0.9-0.2,1.8-0.5,2.5
		s-0.8,1.3-1.5,1.7s-1.4,0.8-2.3,1s-1.8,0.3-2.9,0.3h-0.6l-1.2,4.7h-2.8l3.3-13.8c0.7-0.1,1.4-0.2,2-0.3
		C196.7,94.1,197.2,94,197.7,94z M197.3,96.5c-0.2,0-0.4,0-0.5,0s-0.3,0-0.5,0.1l-1.1,4.5h0.7c1.2,0,2.1-0.2,2.8-0.7
		c0.6-0.5,0.9-1.2,0.9-2c0-0.6-0.2-1-0.5-1.4C198.8,96.6,198.2,96.5,197.3,96.5z"/>
	<path class="st0" d="M206.3,108.5c-1.3,0-2.2-0.4-2.8-1.1c-0.6-0.7-0.9-1.7-0.9-2.9c0-0.9,0.1-1.8,0.4-2.6s0.7-1.6,1.2-2.3
		s1.2-1.2,2-1.6c0.8-0.4,1.7-0.6,2.7-0.6c1.1,0,2,0.3,2.7,1s1,1.7,1,3c0,0.9-0.1,1.8-0.4,2.6c-0.3,0.9-0.6,1.6-1.2,2.3
		s-1.2,1.2-1.9,1.6S207.4,108.5,206.3,108.5z M206.9,106c0.5,0,0.8-0.1,1.2-0.4c0.3-0.3,0.6-0.6,0.9-1s0.4-0.8,0.6-1.3
		s0.2-0.9,0.2-1.3c0-0.7-0.1-1.3-0.3-1.7s-0.6-0.6-1.3-0.6c-0.4,0-0.8,0.1-1.2,0.4c-0.4,0.3-0.7,0.6-0.9,1c-0.2,0.4-0.4,0.8-0.6,1.3
		s-0.2,0.9-0.2,1.3c0,0.7,0.1,1.3,0.3,1.7C205.9,105.8,206.3,106,206.9,106z"/>
	<path class="st0" d="M223.4,100.3c-0.3-0.1-0.6-0.2-1-0.2c-0.4-0.1-0.9-0.1-1.4-0.1c-0.4,0-0.8,0-1.2,0.1c-0.4,0.1-0.8,0.1-1.1,0.3
		l-1.9,7.9H214l2.4-9.9c0.7-0.3,1.5-0.5,2.3-0.7s1.6-0.2,2.3-0.2c0.8,0,1.5,0,2.1,0.1s1,0.2,1.5,0.3L223.4,100.3z"/>
	<path class="st0" d="M228.3,99.9h-2.1l0.6-2.3h2.1l0.6-2.7l2.9-0.5l-0.8,3.1h4l-0.6,2.3h-4l-1,4.1c-0.1,0.4-0.1,0.7-0.1,0.9
		c0,0.5,0.2,0.8,0.5,0.9s0.7,0.2,1,0.2c0.4,0,0.8,0,1.3-0.1s0.8-0.2,1.3-0.4v2.3c-0.5,0.2-1,0.4-1.5,0.5c-0.6,0.1-1.1,0.2-1.7,0.2
		c-1.2,0-2.1-0.3-2.7-0.8s-0.9-1.3-0.9-2.3c0-0.2,0-0.5,0-0.7s0.1-0.5,0.2-0.8L228.3,99.9z"/>
	<path class="st0" d="M240.2,108.5c-1.3,0-2.2-0.4-2.8-1.1c-0.6-0.7-0.9-1.7-0.9-2.9c0-0.9,0.1-1.8,0.4-2.6c0.3-0.9,0.7-1.6,1.2-2.3
		s1.2-1.2,2-1.6c0.8-0.4,1.7-0.6,2.7-0.6c1.1,0,2,0.3,2.7,1s1,1.7,1,3c0,0.9-0.1,1.8-0.4,2.6c-0.3,0.9-0.6,1.6-1.2,2.3
		c-0.5,0.7-1.2,1.2-1.9,1.6C242.1,108.3,241.2,108.5,240.2,108.5z M240.8,106c0.5,0,0.8-0.1,1.2-0.4c0.3-0.3,0.6-0.6,0.9-1
		s0.4-0.8,0.6-1.3s0.2-0.9,0.2-1.3c0-0.7-0.1-1.3-0.3-1.7s-0.6-0.6-1.3-0.6c-0.4,0-0.8,0.1-1.2,0.4s-0.7,0.6-0.9,1
		c-0.2,0.4-0.4,0.8-0.6,1.3c-0.1,0.5-0.2,0.9-0.2,1.3c0,0.7,0.1,1.3,0.3,1.7C239.7,105.8,240.1,106,240.8,106z"/>
	<path class="st0" d="M265.6,104.9h-4c-0.2,0.5-0.5,1-0.7,1.6c-0.2,0.5-0.5,1.1-0.7,1.7h-2.8c1.3-2.8,2.5-5.4,3.7-7.7
		s2.3-4.4,3.5-6.3h3c0.2,1.8,0.4,3.7,0.5,5.6c0.1,2,0.2,4.1,0.2,6.3v2h-2.8L265.6,104.9z M265.5,96.8c-0.2,0.4-0.4,0.7-0.6,1.1
		c-0.2,0.4-0.4,0.8-0.6,1.2s-0.5,1-0.7,1.5c-0.3,0.6-0.6,1.2-0.9,2h3c0-0.8,0-1.4,0-2s0-1.1,0-1.5s0-0.8-0.1-1.2
		C265.5,97.6,265.5,97.2,265.5,96.8z"/>
	<path class="st0" d="M279.1,107.7c-0.1,0-0.2,0.1-0.3,0.2c-0.2,0.1-0.4,0.2-0.7,0.2c-0.3,0.1-0.6,0.1-1,0.2
		c-0.4,0.1-0.8,0.1-1.3,0.1c-1,0-1.8-0.3-2.3-0.8s-0.8-1.3-0.8-2.2c0-0.3,0-0.5,0.1-0.8c0-0.3,0.1-0.6,0.2-0.9l2.1-8.8h-2.9l0.5-2.3
		h5.7l-2.7,11.3c0,0.2-0.1,0.3-0.1,0.5s-0.1,0.3-0.1,0.5c0,0.3,0.1,0.6,0.2,0.8c0.2,0.2,0.5,0.3,1,0.3c0.2,0,0.4,0,0.6-0.1
		c0.2,0,0.4-0.1,0.6-0.1c0.2-0.1,0.4-0.1,0.5-0.2c0.2,0,0.3-0.1,0.3-0.1L279.1,107.7z"/>
	<path class="st0" d="M284.5,104.4c0,0.3,0,0.5,0.1,0.7s0.2,0.4,0.4,0.6s0.5,0.3,0.8,0.3c0.3,0.1,0.8,0.1,1.3,0.1
		c0.6,0,1.2-0.1,1.7-0.2c0.5-0.1,0.9-0.3,1.2-0.4l0.2,2.1c-0.4,0.2-0.9,0.3-1.5,0.5s-1.4,0.2-2.1,0.2c-0.9,0-1.6-0.1-2.2-0.3
		s-1.1-0.5-1.5-0.9s-0.7-0.9-0.9-1.4s-0.3-1.1-0.3-1.8c0-0.9,0.1-1.7,0.4-2.5s0.7-1.5,1.3-2.2c0.6-0.6,1.2-1.1,2.1-1.5
		s1.7-0.6,2.8-0.6c1,0,1.9,0.3,2.5,0.8c0.7,0.5,1,1.2,1,2.1c0,0.8-0.2,1.4-0.6,2s-0.9,1-1.6,1.3s-1.4,0.6-2.3,0.7
		C286.5,104.3,285.6,104.4,284.5,104.4z M287.8,99.5c-0.7,0-1.3,0.2-2,0.7c-0.6,0.5-1.1,1.2-1.3,2.3c0.9,0,1.7-0.1,2.3-0.2
		c0.6-0.1,1.1-0.3,1.4-0.5s0.6-0.4,0.7-0.6c0.1-0.2,0.2-0.4,0.2-0.6c0-0.3-0.1-0.6-0.4-0.8C288.6,99.6,288.3,99.5,287.8,99.5z"/>
	<path class="st0" d="M301.3,106.9c-0.2,0.9-0.5,1.6-0.8,2.3s-0.7,1.2-1.2,1.6c-0.5,0.4-1.1,0.7-1.7,0.9c-0.7,0.2-1.5,0.3-2.4,0.3
		c-0.8,0-1.5-0.1-2-0.2c-0.6-0.1-1.1-0.4-1.7-0.7l1-2.2c0.4,0.2,0.8,0.3,1.3,0.5s1.1,0.2,1.7,0.2c0.9,0,1.6-0.2,2-0.6
		c0.5-0.4,0.8-0.9,0.9-1.5l0.1-0.6c-0.3,0.2-0.7,0.3-1,0.4s-0.7,0.1-1,0.1c-1.2,0-2.1-0.3-2.6-1s-0.8-1.6-0.8-2.7
		c0-1,0.2-1.9,0.6-2.7s0.9-1.5,1.5-2s1.3-1,2.1-1.2c0.8-0.3,1.6-0.4,2.4-0.4c0.6,0,1.3,0,1.9,0.1s1.2,0.3,1.8,0.5L301.3,106.9z
		 M300.2,99.7c-0.4-0.1-0.7-0.1-1-0.1c-0.5,0-1,0.1-1.4,0.3s-0.8,0.5-1.1,0.9c-0.3,0.4-0.5,0.8-0.7,1.3s-0.2,1-0.2,1.5
		s0.1,0.8,0.3,1.2c0.2,0.3,0.6,0.5,1.2,0.5c0.2,0,0.5,0,0.8-0.1s0.6-0.2,0.9-0.4L300.2,99.7z"/>
	<path class="st0" d="M313.7,100.3c-0.3-0.1-0.6-0.2-1-0.2c-0.4-0.1-0.9-0.1-1.4-0.1c-0.4,0-0.8,0-1.2,0.1c-0.4,0.1-0.8,0.1-1.1,0.3
		l-1.9,7.9h-2.8l2.4-9.9c0.7-0.3,1.5-0.5,2.3-0.7s1.6-0.2,2.3-0.2c0.8,0,1.5,0,2.1,0.1s1,0.2,1.5,0.3L313.7,100.3z"/>
	<path class="st0" d="M318.4,104.4c0,0.3,0,0.5,0.1,0.7s0.2,0.4,0.4,0.6s0.5,0.3,0.8,0.3c0.3,0.1,0.8,0.1,1.3,0.1
		c0.6,0,1.2-0.1,1.7-0.2c0.5-0.1,0.9-0.3,1.2-0.4l0.2,2.1c-0.4,0.2-0.9,0.3-1.5,0.5s-1.4,0.2-2.1,0.2c-0.9,0-1.6-0.1-2.2-0.3
		s-1.1-0.5-1.5-0.9s-0.7-0.9-0.9-1.4s-0.3-1.1-0.3-1.8c0-0.9,0.1-1.7,0.4-2.5s0.7-1.5,1.3-2.2c0.6-0.6,1.2-1.1,2.1-1.5
		s1.7-0.6,2.8-0.6c1,0,1.9,0.3,2.5,0.8c0.7,0.5,1,1.2,1,2.1c0,0.8-0.2,1.4-0.6,2s-0.9,1-1.6,1.3s-1.4,0.6-2.3,0.7
		C320.4,104.3,319.4,104.4,318.4,104.4z M321.7,99.5c-0.7,0-1.3,0.2-2,0.7c-0.6,0.5-1.1,1.2-1.3,2.3c0.9,0,1.7-0.1,2.3-0.2
		c0.6-0.1,1.1-0.3,1.4-0.5s0.6-0.4,0.7-0.6c0.1-0.2,0.2-0.4,0.2-0.6c0-0.3-0.1-0.6-0.4-0.8C322.5,99.6,322.1,99.5,321.7,99.5z"/>
</g>
</svg>
